<?xml version="1.0" encoding="utf-8" ?>
<!DOCTYPE svg PUBLIC "-//W3C//DTD SVG 1.1//EN" "http://www.w3.org/Graphics/SVG/1.1/DTD/svg11.dtd">
<svg height="286" version="1.1" width="1157" xmlns="http://www.w3.org/2000/svg">
<rect fill="#ffffff" height="71" stroke="#ffffff" stroke-width="1" width="94" x="211" y="128"/>
<rect fill="none" height="71" stroke="#000000" stroke-width="1" width="94" x="211" y="128"/>
<text font-family="Lucida Grande" font-size="13" x="234" y="142">
Activity</text>
<rect fill="#000000" height="1" stroke="#000000" stroke-width="1" width="94" x="211" y="152"/>
<rect fill="#000000" height="1" stroke="#000000" stroke-width="1" width="94" x="211" y="175"/>
<rect fill="#ffffff" height="68" stroke="#ffffff" stroke-width="1" width="174" x="515" y="128"/>
<rect fill="none" height="68" stroke="#000000" stroke-width="1" width="174" x="515" y="128"/>
<text font-family="Lucida Grande" font-size="13" x="583" y="142">
Agent</text>
<rect fill="#000000" height="1" stroke="#000000" stroke-width="1" width="174" x="515" y="152"/>
<rect fill="#000000" height="1" stroke="#000000" stroke-width="1" width="174" x="515" y="173"/>
<rect fill="#ffffff" height="72" stroke="#ffffff" stroke-width="1" width="142" x="867" y="136"/>
<rect fill="none" height="72" stroke="#000000" stroke-width="1" width="142" x="867" y="136"/>
<text font-family="Lucida Grande" font-size="13" x="920" y="150">
Entity</text>
<rect fill="#000000" height="1" stroke="#000000" stroke-width="1" width="142" x="867" y="160"/>
<rect fill="#000000" height="1" stroke="#000000" stroke-width="1" width="142" x="867" y="183"/>
<polyline fill="none" points="867,168 689,168" stroke="#000000" stroke-width="1"/>
<line fill="#000000" stroke="#000000" stroke-width="1" x1="701" x2="689" y1="161" y2="168"/>
<line fill="#000000" stroke="#000000" stroke-width="1" x1="701" x2="689" y1="175" y2="168"/>
<text font-family="Lucida Grande" font-size="13" x="696" y="161">
wasAttributedTo</text>
<polyline fill="none" points="915,136 915,48 795,48 795,144 867,144" stroke="#000000" stroke-width="1"/>
<line fill="#000000" stroke="#000000" stroke-width="1" x1="855" x2="867" y1="151" y2="144"/>
<line fill="#000000" stroke="#000000" stroke-width="1" x1="855" x2="867" y1="137" y2="144"/>
<text font-family="Lucida Grande" font-size="13" x="771" y="28">
wasRevisionOf</text>
<polyline fill="none" points="305,168 403,168 403,80 283,80 283,136" stroke="#000000" stroke-width="1"/>
<line fill="#000000" stroke="#000000" stroke-width="1" x1="276" x2="283" y1="124" y2="136"/>
<line fill="#000000" stroke="#000000" stroke-width="1" x1="290" x2="283" y1="124" y2="136"/>
<text font-family="Lucida Grande" font-size="13" x="385" y="75">
wasInformedBy</text>
<polyline fill="none" points="219,128 219,88 91,88 91,176 211,176" stroke="#000000" stroke-width="1"/>
<line fill="#000000" stroke="#000000" stroke-width="1" x1="199" x2="211" y1="183" y2="176"/>
<line fill="#000000" stroke="#000000" stroke-width="1" x1="199" x2="211" y1="169" y2="176"/>
<text font-family="Lucida Grande" font-size="13" x="15" y="77">
wasStartedBy</text>
<polyline fill="none" points="915,208 915,272 1051,272 1051,192 1009,192" stroke="#000000" stroke-width="1"/>
<line fill="#000000" stroke="#000000" stroke-width="1" x1="1021" x2="1009" y1="185" y2="192"/>
<line fill="#000000" stroke="#000000" stroke-width="1" x1="1021" x2="1009" y1="199" y2="192"/>
<text font-family="Lucida Grande" font-size="13" x="1054" y="259">
tracedTo</text>
<polyline fill="none" points="867,192 787,192 787,272 883,272 883,208" stroke="#000000" stroke-width="1"/>
<line fill="#000000" stroke="#000000" stroke-width="1" x1="890" x2="883" y1="220" y2="208"/>
<line fill="#000000" stroke="#000000" stroke-width="1" x1="876" x2="883" y1="220" y2="208"/>
<text font-family="Lucida Grande" font-size="13" x="676" y="257">
wasQuotedFrom</text>
<polyline fill="none" points="1009,152 1059,152 1059,48 971,48 971,136" stroke="#000000" stroke-width="1"/>
<line fill="#000000" stroke="#000000" stroke-width="1" x1="964" x2="971" y1="124" y2="136"/>
<line fill="#000000" stroke="#000000" stroke-width="1" x1="978" x2="971" y1="124" y2="136"/>
<text font-family="Lucida Grande" font-size="13" x="1010" y="29">
wasQuotedFrom</text>
</svg>
