<?xml version="1.0" encoding="utf-8" ?>
<!DOCTYPE svg PUBLIC "-//W3C//DTD SVG 1.1//EN" "http://www.w3.org/Graphics/SVG/1.1/DTD/svg11.dtd">
<svg height="417" version="1.1" width="744" xmlns="http://www.w3.org/2000/svg">
<rect fill="#ffffff" height="122" stroke="#ffffff" stroke-width="1" width="120" x="462" y="150"/>
<rect fill="none" height="122" stroke="#000000" stroke-width="1" width="120" x="462" y="150"/>
<text font-family="Lucida Grande" font-size="13" x="498" y="164">
Activity</text>
<rect fill="#000000" height="1" stroke="#000000" stroke-width="1" width="120" x="462" y="174"/>
<text font-family="Lucida Grande" font-size="13" x="466" y="189">
id</text>
<text font-family="Lucida Grande" font-size="13" x="466" y="206">
startTime</text>
<text font-family="Lucida Grande" font-size="13" x="466" y="223">
endTime</text>
<text font-family="Lucida Grande" font-size="13" x="466" y="240">
attributes</text>
<rect fill="#000000" height="1" stroke="#000000" stroke-width="1" width="120" x="462" y="250"/>
<rect fill="#ffffff" height="88" stroke="#ffffff" stroke-width="1" width="88" x="14" y="158"/>
<rect fill="none" height="88" stroke="#000000" stroke-width="1" width="88" x="14" y="158"/>
<text font-family="Lucida Grande" font-size="13" x="40" y="172">
Entity</text>
<rect fill="#000000" height="1" stroke="#000000" stroke-width="1" width="88" x="14" y="182"/>
<text font-family="Lucida Grande" font-size="13" x="18" y="197">
id</text>
<text font-family="Lucida Grande" font-size="13" x="18" y="214">
attrs</text>
<rect fill="#000000" height="1" stroke="#000000" stroke-width="1" width="88" x="14" y="224"/>
<polyline fill="none" points="462,245 101,245" stroke="#000000" stroke-width="1"/>
<line fill="#000000" stroke="#000000" stroke-width="1" x1="450" x2="462" y1="252" y2="245"/>
<line fill="#000000" stroke="#000000" stroke-width="1" x1="450" x2="462" y1="238" y2="245"/>
<text font-family="Lucida Grande" font-size="13" x="183" y="240">
wasGeneratedBy(t)</text>
<polyline fill="none" points="566,150 566,94 638,94 638,182 581,182" stroke="#000000" stroke-width="1"/>
<line fill="#000000" stroke="#000000" stroke-width="1" x1="593" x2="581" y1="175" y2="182"/>
<line fill="#000000" stroke="#000000" stroke-width="1" x1="593" x2="581" y1="189" y2="182"/>
<text font-family="Lucida Grande" font-size="13" x="634" y="89">
wasInformedBy</text>
<polyline fill="none" points="462,174 101,174" stroke="#000000" stroke-width="1"/>
<line fill="#000000" stroke="#000000" stroke-width="1" x1="113" x2="101" y1="167" y2="174"/>
<line fill="#000000" stroke="#000000" stroke-width="1" x1="113" x2="101" y1="181" y2="174"/>
<text font-family="Lucida Grande" font-size="13" x="245" y="168">
used(t)</text>
<polyline fill="none" points="101,206 462,206" stroke="#000000" stroke-width="1"/>
<line fill="#000000" stroke="#000000" stroke-width="1" x1="450" x2="462" y1="213" y2="206"/>
<line fill="#000000" stroke="#000000" stroke-width="1" x1="450" x2="462" y1="199" y2="206"/>
<text font-family="Lucida Grande" font-size="13" x="231" y="200">
wasInvalidatedBy(t)</text>
<polyline fill="none" points="62,245 62,302 510,302 510,271" stroke="#000000" stroke-width="1"/>
<ellipse cx="273" cy="300" fill="#000000" rx="0.5" ry="0.5" stroke="#000000" stroke-width="1"/>
<ellipse cx="274" cy="301" fill="#ffffff" rx="-0.5" ry="-0.5" stroke="#ffffff" stroke-width="1"/>
<rect fill="#ffffff" height="71" stroke="#ffffff" stroke-width="1" width="93" x="230" y="326"/>
<rect fill="none" height="71" stroke="#000000" stroke-width="1" width="93" x="230" y="326"/>
<text font-family="Lucida Grande" font-size="13" x="235" y="340">
wasStartedBy</text>
<rect fill="#000000" height="1" stroke="#000000" stroke-width="1" width="93" x="230" y="350"/>
<text font-family="Lucida Grande" font-size="13" x="234" y="365">
time</text>
<rect fill="#000000" height="1" stroke="#000000" stroke-width="1" width="93" x="230" y="375"/>
<line fill="#000000" stroke="#000000" stroke-width="1" x1="273" x2="273" y1="300" y2="305"/>
<line fill="#000000" stroke="#000000" stroke-width="1" x1="273" x2="273" y1="310" y2="315"/>
<line fill="#000000" stroke="#000000" stroke-width="1" x1="273" x2="273" y1="320" y2="325"/>
<polyline fill="none" points="62,158 62,102 502,102 502,150" stroke="#000000" stroke-width="1"/>
<ellipse cx="278" cy="100" fill="#000000" rx="0.5" ry="0.5" stroke="#000000" stroke-width="1"/>
<ellipse cx="279" cy="101" fill="#ffffff" rx="-0.5" ry="-0.5" stroke="#ffffff" stroke-width="1"/>
<rect fill="#ffffff" height="71" stroke="#ffffff" stroke-width="1" width="87" x="238" y="14"/>
<rect fill="none" height="71" stroke="#000000" stroke-width="1" width="87" x="238" y="14"/>
<text font-family="Lucida Grande" font-size="13" x="243" y="28">
wasEndedBy</text>
<rect fill="#000000" height="1" stroke="#000000" stroke-width="1" width="87" x="238" y="38"/>
<text font-family="Lucida Grande" font-size="13" x="242" y="53">
time</text>
<rect fill="#000000" height="1" stroke="#000000" stroke-width="1" width="87" x="238" y="63"/>
<line fill="#000000" stroke="#000000" stroke-width="1" x1="278" x2="278" y1="100" y2="95"/>
<line fill="#000000" stroke="#000000" stroke-width="1" x1="278" x2="278" y1="90" y2="85"/>
<polyline fill="none" points="322,366 534,366 534,271" stroke="#000000" stroke-width="1"/>
<line fill="#000000" stroke="#000000" stroke-width="1" x1="541" x2="534" y1="283" y2="271"/>
<line fill="#000000" stroke="#000000" stroke-width="1" x1="527" x2="534" y1="283" y2="271"/>
<text font-family="Lucida Grande" font-size="13" x="434" y="359">
trigger</text>
<polyline fill="none" points="324,46 526,46 526,150" stroke="#000000" stroke-width="1"/>
<line fill="#000000" stroke="#000000" stroke-width="1" x1="519" x2="526" y1="138" y2="150"/>
<line fill="#000000" stroke="#000000" stroke-width="1" x1="533" x2="526" y1="138" y2="150"/>
<text font-family="Lucida Grande" font-size="13" x="423" y="40">
trigger</text>
</svg>
