<?xml version="1.0" encoding="utf-8" ?>
<!DOCTYPE svg PUBLIC "-//W3C//DTD SVG 1.1//EN" "http://www.w3.org/Graphics/SVG/1.1/DTD/svg11.dtd">
<svg height="321" version="1.1" width="360" xmlns="http://www.w3.org/2000/svg">
<rect fill="#ffffff" height="68" stroke="#ffffff" stroke-width="1" width="66" x="280" y="238"/>
<rect fill="none" height="68" stroke="#000000" stroke-width="1" width="66" x="280" y="238"/>
<text font-family="Lucida Grande" font-size="13" x="289" y="252">
Activity</text>
<rect fill="#000000" height="1" stroke="#000000" stroke-width="1" width="66" x="280" y="262"/>
<rect fill="#000000" height="1" stroke="#000000" stroke-width="1" width="66" x="280" y="283"/>
<rect fill="#ffffff" height="68" stroke="#ffffff" stroke-width="1" width="66" x="14" y="238"/>
<rect fill="none" height="68" stroke="#000000" stroke-width="1" width="66" x="14" y="238"/>
<text font-family="Lucida Grande" font-size="13" x="28" y="252">
Agent</text>
<rect fill="#000000" height="1" stroke="#000000" stroke-width="1" width="66" x="14" y="262"/>
<rect fill="#000000" height="1" stroke="#000000" stroke-width="1" width="66" x="14" y="283"/>
<polyline fill="none" points="80,270 280,270" stroke="#000000" stroke-width="1"/>
<ellipse cx="180" cy="268" fill="#000000" rx="0.5" ry="0.5" stroke="#000000" stroke-width="1"/>
<ellipse cx="181" cy="269" fill="#ffffff" rx="-0.5" ry="-0.5" stroke="#ffffff" stroke-width="1"/>
<rect fill="#ffffff" height="88" stroke="#ffffff" stroke-width="1" width="132" x="112" y="142"/>
<rect fill="none" height="88" stroke="#000000" stroke-width="1" width="132" x="112" y="142"/>
<text font-family="Lucida Grande" font-size="13" x="117" y="156">
ActivityAssociation</text>
<rect fill="#000000" height="1" stroke="#000000" stroke-width="1" width="132" x="112" y="166"/>
<text font-family="Lucida Grande" font-size="13" x="116" y="181">
id</text>
<text font-family="Lucida Grande" font-size="13" x="116" y="198">
attributeList</text>
<rect fill="#000000" height="1" stroke="#000000" stroke-width="1" width="132" x="112" y="208"/>
<line fill="#000000" stroke="#000000" stroke-width="1" x1="181" x2="181" y1="268" y2="263"/>
<line fill="#000000" stroke="#000000" stroke-width="1" x1="181" x2="181" y1="258" y2="253"/>
<line fill="#000000" stroke="#000000" stroke-width="1" x1="181" x2="181" y1="248" y2="243"/>
<line fill="#000000" stroke="#000000" stroke-width="1" x1="181" x2="181" y1="238" y2="233"/>
<rect fill="#ffffff" height="68" stroke="#ffffff" stroke-width="1" width="66" x="152" y="14"/>
<rect fill="none" height="68" stroke="#000000" stroke-width="1" width="66" x="152" y="14"/>
<text font-family="Lucida Grande" font-size="13" x="172" y="28">
Plan</text>
<rect fill="#000000" height="1" stroke="#000000" stroke-width="1" width="66" x="152" y="38"/>
<rect fill="#000000" height="1" stroke="#000000" stroke-width="1" width="66" x="152" y="59"/>
<polyline fill="none" points="184,142 184,82" stroke="#000000" stroke-width="1"/>
<line fill="#000000" stroke="#000000" stroke-width="1" x1="191" x2="184" y1="94" y2="82"/>
<line fill="#000000" stroke="#000000" stroke-width="1" x1="177" x2="184" y1="94" y2="82"/>
</svg>
