<?xml version="1.0" encoding="UTF-8" standalone="no"?>
<!DOCTYPE svg PUBLIC "-//W3C//DTD SVG 1.1//EN"
 "http://www.w3.org/Graphics/SVG/1.1/DTD/svg11.dtd">
<!-- Generated by graphviz version 2.26.3 (20100126.1600)
 -->
<!-- Title: OPMGraph Pages: 1 -->
<svg width="1358pt" height="268pt"
 viewBox="0.00 0.00 1358.00 268.00" xmlns="http://www.w3.org/2000/svg" xmlns:xlink="http://www.w3.org/1999/xlink">
<g id="graph1" class="graph" transform="scale(1 1) rotate(0) translate(4 264)">
<title>OPMGraph</title>
<polygon fill="white" stroke="white" points="-4,5 -4,-264 1355,-264 1355,5 -4,5"/>
<!-- edit1 -->
<g id="node1" class="node"><title>edit1</title>
<polygon fill="none" stroke="black" points="702,-188 648,-188 648,-152 702,-152 702,-188"/>
<text text-anchor="middle" x="675" y="-164.9" font-family="Times,serif" font-size="14.00">edit1</text>
</g>
<!-- Luc -->
<g id="node7" class="node"><title>Luc</title>
<polygon fill="none" stroke="black" points="97,-234.544 97,-249.456 81.1838,-260 58.8162,-260 43,-249.456 43,-234.544 58.8162,-224 81.1838,-224 97,-234.544"/>
<text text-anchor="middle" x="70" y="-236.9" font-family="Times,serif" font-size="14.00">Luc</text>
</g>
<!-- edit1&#45;&gt;Luc -->
<g id="edge32" class="edge"><title>edit1&#45;&gt;Luc</title>
<path fill="none" stroke="black" d="M647.927,-184.922C644.976,-186.127 641.966,-187.19 639,-188 415.939,-248.882 346.266,-176.387 120,-224 114.47,-225.164 108.724,-226.801 103.182,-228.618"/>
<polygon fill="black" stroke="black" points="101.787,-225.399 93.5174,-232.021 104.112,-232.002 101.787,-225.399"/>
</g>
<!-- Paolo -->
<g id="node10" class="node"><title>Paolo</title>
<polygon fill="none" stroke="black" points="199.175,-234.544 199.175,-249.456 178.57,-260 149.43,-260 128.825,-249.456 128.825,-234.544 149.43,-224 178.57,-224 199.175,-234.544"/>
<text text-anchor="middle" x="164" y="-236.9" font-family="Times,serif" font-size="14.00">Paolo</text>
</g>
<!-- edit1&#45;&gt;Paolo -->
<g id="edge34" class="edge"><title>edit1&#45;&gt;Paolo</title>
<path fill="none" stroke="black" d="M647.913,-184.872C644.965,-186.087 641.959,-187.166 639,-188 459.098,-238.696 403.243,-187.169 220,-224 214.431,-225.119 208.638,-226.602 202.982,-228.238"/>
<polygon fill="black" stroke="black" points="201.554,-225.015 193.025,-231.3 203.612,-231.705 201.554,-225.015"/>
</g>
<!-- Khalid -->
<g id="node13" class="node"><title>Khalid</title>
<polygon fill="none" stroke="black" points="306.897,-234.544 306.897,-249.456 284.112,-260 251.888,-260 229.103,-249.456 229.103,-234.544 251.888,-224 284.112,-224 306.897,-234.544"/>
<text text-anchor="middle" x="268" y="-236.9" font-family="Times,serif" font-size="14.00">Khalid</text>
</g>
<!-- edit1&#45;&gt;Khalid -->
<g id="edge36" class="edge"><title>edit1&#45;&gt;Khalid</title>
<path fill="none" stroke="black" d="M647.889,-184.787C644.945,-186.018 641.947,-187.125 639,-188 503.921,-228.121 461.745,-194.296 324,-224 319.012,-225.076 313.837,-226.417 308.739,-227.88"/>
<polygon fill="black" stroke="black" points="307.653,-224.552 299.099,-230.804 309.685,-231.251 307.653,-224.552"/>
</g>
<!-- Stephen -->
<g id="node16" class="node"><title>Stephen</title>
<polygon fill="none" stroke="black" points="419.115,-234.544 419.115,-249.456 393.859,-260 358.141,-260 332.885,-249.456 332.885,-234.544 358.141,-224 393.859,-224 419.115,-234.544"/>
<text text-anchor="middle" x="376" y="-236.9" font-family="Times,serif" font-size="14.00">Stephen</text>
</g>
<!-- edit1&#45;&gt;Stephen -->
<g id="edge38" class="edge"><title>edit1&#45;&gt;Stephen</title>
<path fill="none" stroke="black" d="M647.831,-184.603C644.899,-185.87 641.919,-187.035 639,-188 551.582,-216.888 524.529,-202.527 435,-224 430.239,-225.142 425.297,-226.45 420.39,-227.829"/>
<polygon fill="black" stroke="black" points="419.06,-224.57 410.437,-230.727 421.017,-231.291 419.06,-224.57"/>
</g>
<!-- Yolanda -->
<g id="node19" class="node"><title>Yolanda</title>
<polygon fill="none" stroke="black" points="534.225,-234.544 534.225,-249.456 507.733,-260 470.267,-260 443.775,-249.456 443.775,-234.544 470.267,-224 507.733,-224 534.225,-234.544"/>
<text text-anchor="middle" x="489" y="-236.9" font-family="Times,serif" font-size="14.00">Yolanda</text>
</g>
<!-- edit1&#45;&gt;Yolanda -->
<g id="edge40" class="edge"><title>edit1&#45;&gt;Yolanda</title>
<path fill="none" stroke="black" d="M647.64,-184.097C644.745,-185.464 641.826,-186.79 639,-188 604.483,-202.781 564.425,-217.061 534.392,-227.22"/>
<polygon fill="black" stroke="black" points="532.98,-224.002 524.613,-230.502 535.207,-230.638 532.98,-224.002"/>
</g>
<!-- Ryan -->
<g id="node22" class="node"><title>Ryan</title>
<polygon fill="none" stroke="black" points="627.863,-234.544 627.863,-249.456 609.198,-260 582.802,-260 564.137,-249.456 564.137,-234.544 582.802,-224 609.198,-224 627.863,-234.544"/>
<text text-anchor="middle" x="596" y="-236.9" font-family="Times,serif" font-size="14.00">Ryan</text>
</g>
<!-- edit1&#45;&gt;Ryan -->
<g id="edge42" class="edge"><title>edit1&#45;&gt;Ryan</title>
<path fill="none" stroke="black" d="M655.065,-188.169C644.693,-197.622 631.912,-209.27 620.896,-219.31"/>
<polygon fill="black" stroke="black" points="618.279,-216.96 613.245,-226.283 622.994,-222.133 618.279,-216.96"/>
</g>
<!-- Paul -->
<g id="node25" class="node"><title>Paul</title>
<polygon fill="none" stroke="black" points="715.046,-234.544 715.046,-249.456 698.031,-260 673.969,-260 656.954,-249.456 656.954,-234.544 673.969,-224 698.031,-224 715.046,-234.544"/>
<text text-anchor="middle" x="686" y="-236.9" font-family="Times,serif" font-size="14.00">Paul</text>
</g>
<!-- edit1&#45;&gt;Paul -->
<g id="edge44" class="edge"><title>edit1&#45;&gt;Paul</title>
<path fill="none" stroke="black" d="M677.776,-188.169C678.952,-195.869 680.351,-205.026 681.659,-213.583"/>
<polygon fill="black" stroke="black" points="678.217,-214.23 683.187,-223.587 685.136,-213.173 678.217,-214.23"/>
</g>
<!-- Graham -->
<g id="node28" class="node"><title>Graham</title>
<polygon fill="none" stroke="black" points="873.115,-234.544 873.115,-249.456 847.859,-260 812.141,-260 786.885,-249.456 786.885,-234.544 812.141,-224 847.859,-224 873.115,-234.544"/>
<text text-anchor="middle" x="830" y="-236.9" font-family="Times,serif" font-size="14.00">Graham</text>
</g>
<!-- edit1&#45;&gt;Graham -->
<g id="edge46" class="edge"><title>edit1&#45;&gt;Graham</title>
<path fill="none" stroke="black" d="M702.073,-183.673C705.077,-185.15 708.098,-186.617 711,-188 737.459,-200.613 767.522,-214.249 790.811,-224.663"/>
<polygon fill="black" stroke="black" points="789.465,-227.895 800.024,-228.772 792.317,-221.502 789.465,-227.895"/>
</g>
<!-- Jim -->
<g id="node31" class="node"><title>Jim</title>
<polygon fill="none" stroke="black" points="982,-234.544 982,-249.456 966.184,-260 943.816,-260 928,-249.456 928,-234.544 943.816,-224 966.184,-224 982,-234.544"/>
<text text-anchor="middle" x="955" y="-236.9" font-family="Times,serif" font-size="14.00">Jim</text>
</g>
<!-- edit1&#45;&gt;Jim -->
<g id="edge48" class="edge"><title>edit1&#45;&gt;Jim</title>
<path fill="none" stroke="black" d="M702.202,-184.504C705.128,-185.791 708.097,-186.988 711,-188 784.334,-213.576 806.285,-206.701 882,-224 893.712,-226.676 906.439,-229.755 917.936,-232.6"/>
<polygon fill="black" stroke="black" points="917.118,-236.003 927.667,-235.025 918.81,-229.211 917.118,-236.003"/>
</g>
<!-- Simon -->
<g id="node34" class="node"><title>Simon</title>
<polygon fill="none" stroke="black" points="1106.99,-234.544 1106.99,-249.456 1084.74,-260 1053.26,-260 1031.01,-249.456 1031.01,-234.544 1053.26,-224 1084.74,-224 1106.99,-234.544"/>
<text text-anchor="middle" x="1069" y="-236.9" font-family="Times,serif" font-size="14.00">Simon</text>
</g>
<!-- edit1&#45;&gt;Simon -->
<g id="edge50" class="edge"><title>edit1&#45;&gt;Simon</title>
<path fill="none" stroke="black" d="M702.124,-184.744C705.065,-185.984 708.059,-187.104 711,-188 831.021,-224.57 867.499,-201.867 991,-224 1001.68,-225.914 1013.1,-228.334 1023.81,-230.773"/>
<polygon fill="black" stroke="black" points="1023.28,-234.245 1033.82,-233.103 1024.87,-227.427 1023.28,-234.245"/>
</g>
<!-- James -->
<g id="node37" class="node"><title>James</title>
<polygon fill="none" stroke="black" points="1220.08,-234.544 1220.08,-249.456 1198.95,-260 1169.05,-260 1147.92,-249.456 1147.92,-234.544 1169.05,-224 1198.95,-224 1220.08,-234.544"/>
<text text-anchor="middle" x="1184" y="-236.9" font-family="Times,serif" font-size="14.00">James</text>
</g>
<!-- edit1&#45;&gt;James -->
<g id="edge52" class="edge"><title>edit1&#45;&gt;James</title>
<path fill="none" stroke="black" d="M702.089,-184.863C705.037,-186.08 708.042,-187.162 711,-188 884.863,-237.271 938.01,-192.766 1116,-224 1124.56,-225.502 1133.61,-227.56 1142.23,-229.748"/>
<polygon fill="black" stroke="black" points="1141.52,-233.181 1152.08,-232.352 1143.31,-226.413 1141.52,-233.181"/>
</g>
<!-- Satya -->
<g id="node40" class="node"><title>Satya</title>
<polygon fill="none" stroke="black" points="1326.06,-234.544 1326.06,-249.456 1306.7,-260 1279.3,-260 1259.94,-249.456 1259.94,-234.544 1279.3,-224 1306.7,-224 1326.06,-234.544"/>
<text text-anchor="middle" x="1293" y="-236.9" font-family="Times,serif" font-size="14.00">Satya</text>
</g>
<!-- edit1&#45;&gt;Satya -->
<g id="edge54" class="edge"><title>edit1&#45;&gt;Satya</title>
<path fill="none" stroke="black" d="M702.073,-184.922C705.024,-186.127 708.034,-187.19 711,-188 933.63,-248.781 1001.62,-184.552 1229,-224 1237.17,-225.417 1245.79,-227.455 1253.96,-229.654"/>
<polygon fill="black" stroke="black" points="1253.08,-233.042 1263.66,-232.386 1254.98,-226.305 1253.08,-233.042"/>
</g>
<!-- ann14 -->
<g id="node2" class="node"><title>ann14</title>
<polygon fill="none" stroke="gray" points="628,-116 560,-116 560,-80 634,-80 634,-110 628,-116"/>
<polyline fill="none" stroke="gray" points="628,-116 628,-110 "/>
<polyline fill="none" stroke="gray" points="634,-110 628,-110 "/>
<text text-anchor="start" x="570" y="-94.2333" font-family="Times,serif" font-size="14.00">type:</text>
<text text-anchor="start" x="601" y="-94.2333" font-family="Times,serif" font-size="14.00">edit</text>
</g>
<!-- ann14&#45;&gt;edit1 -->
<g id="edge2" class="edge"><title>ann14&#45;&gt;edit1</title>
<path fill="none" stroke="gray" stroke-dasharray="5,2" d="M616.683,-116.169C628.507,-127.083 643.501,-140.924 655.324,-151.837"/>
</g>
<!-- WD_prov_dm_20111215 -->
<g id="node4" class="node"><title>WD_prov_dm_20111215</title>
<ellipse fill="none" stroke="black" cx="752" cy="-98" rx="100.24" ry="18"/>
<text text-anchor="middle" x="752" y="-92.9" font-family="Times,serif" font-size="14.00">WD&#45;prov&#45;dm&#45;20111215</text>
</g>
<!-- WD_prov_dm_20111215&#45;&gt;edit1 -->
<g id="edge30" class="edge"><title>WD_prov_dm_20111215&#45;&gt;edit1</title>
<path fill="none" stroke="black" d="M732.966,-115.798C723.597,-124.558 712.141,-135.271 701.895,-144.852"/>
<polygon fill="black" stroke="black" points="699.263,-142.52 694.35,-151.907 704.044,-147.633 699.263,-142.52"/>
</g>
<!-- ann15 -->
<g id="node5" class="node"><title>ann15</title>
<polygon fill="none" stroke="gray" points="809,-43.5 689,-43.5 689,-0.5 815,-0.5 815,-37.5 809,-43.5"/>
<polyline fill="none" stroke="gray" points="809,-43.5 809,-37.5 "/>
<polyline fill="none" stroke="gray" points="815,-37.5 809,-37.5 "/>
<text text-anchor="start" x="699" y="-26.2333" font-family="Times,serif" font-size="14.00">type:</text>
<text text-anchor="start" x="748" y="-26.2333" font-family="Times,serif" font-size="14.00">document</text>
<text text-anchor="start" x="699" y="-9.73333" font-family="Times,serif" font-size="14.00">version:</text>
<text text-anchor="start" x="748" y="-9.73333" font-family="Times,serif" font-size="14.00">2</text>
</g>
<!-- ann15&#45;&gt;WD_prov_dm_20111215 -->
<g id="edge4" class="edge"><title>ann15&#45;&gt;WD_prov_dm_20111215</title>
<path fill="none" stroke="gray" stroke-dasharray="5,2" d="M752,-43.5753C752,-54.9853 752,-68.8417 752,-79.7175"/>
</g>
<!-- ann16 -->
<g id="node8" class="node"><title>ann16</title>
<polygon fill="none" stroke="gray" points="84,-188 3.55271e-14,-188 0,-152 90,-152 90,-182 84,-188"/>
<polyline fill="none" stroke="gray" points="84,-188 84,-182 "/>
<polyline fill="none" stroke="gray" points="90,-182 84,-182 "/>
<text text-anchor="start" x="10" y="-166.233" font-family="Times,serif" font-size="14.00">type:</text>
<text text-anchor="start" x="41" y="-166.233" font-family="Times,serif" font-size="14.00">Person</text>
</g>
<!-- ann16&#45;&gt;Luc -->
<g id="edge6" class="edge"><title>ann16&#45;&gt;Luc</title>
<path fill="none" stroke="gray" stroke-dasharray="5,2" d="M51.3086,-188.169C55.0694,-199 59.8307,-212.712 63.6065,-223.587"/>
</g>
<!-- ann17 -->
<g id="node11" class="node"><title>ann17</title>
<polygon fill="none" stroke="gray" points="192,-188 108,-188 108,-152 198,-152 198,-182 192,-188"/>
<polyline fill="none" stroke="gray" points="192,-188 192,-182 "/>
<polyline fill="none" stroke="gray" points="198,-182 192,-182 "/>
<text text-anchor="start" x="118" y="-166.233" font-family="Times,serif" font-size="14.00">type:</text>
<text text-anchor="start" x="149" y="-166.233" font-family="Times,serif" font-size="14.00">Person</text>
</g>
<!-- ann17&#45;&gt;Paolo -->
<g id="edge8" class="edge"><title>ann17&#45;&gt;Paolo</title>
<path fill="none" stroke="gray" stroke-dasharray="5,2" d="M155.776,-188.169C157.431,-199 159.526,-212.712 161.187,-223.587"/>
</g>
<!-- ann18 -->
<g id="node14" class="node"><title>ann18</title>
<polygon fill="none" stroke="gray" points="300,-188 216,-188 216,-152 306,-152 306,-182 300,-188"/>
<polyline fill="none" stroke="gray" points="300,-188 300,-182 "/>
<polyline fill="none" stroke="gray" points="306,-182 300,-182 "/>
<text text-anchor="start" x="226" y="-166.233" font-family="Times,serif" font-size="14.00">type:</text>
<text text-anchor="start" x="257" y="-166.233" font-family="Times,serif" font-size="14.00">Person</text>
</g>
<!-- ann18&#45;&gt;Khalid -->
<g id="edge10" class="edge"><title>ann18&#45;&gt;Khalid</title>
<path fill="none" stroke="gray" stroke-dasharray="5,2" d="M262.766,-188.169C263.819,-199 265.153,-212.712 266.21,-223.587"/>
</g>
<!-- ann19 -->
<g id="node17" class="node"><title>ann19</title>
<polygon fill="none" stroke="gray" points="408,-188 324,-188 324,-152 414,-152 414,-182 408,-188"/>
<polyline fill="none" stroke="gray" points="408,-188 408,-182 "/>
<polyline fill="none" stroke="gray" points="414,-182 408,-182 "/>
<text text-anchor="start" x="334" y="-166.233" font-family="Times,serif" font-size="14.00">type:</text>
<text text-anchor="start" x="365" y="-166.233" font-family="Times,serif" font-size="14.00">Person</text>
</g>
<!-- ann19&#45;&gt;Stephen -->
<g id="edge12" class="edge"><title>ann19&#45;&gt;Stephen</title>
<path fill="none" stroke="gray" stroke-dasharray="5,2" d="M370.766,-188.169C371.819,-199 373.153,-212.712 374.21,-223.587"/>
</g>
<!-- ann20 -->
<g id="node20" class="node"><title>ann20</title>
<polygon fill="none" stroke="gray" points="516,-188 432,-188 432,-152 522,-152 522,-182 516,-188"/>
<polyline fill="none" stroke="gray" points="516,-188 516,-182 "/>
<polyline fill="none" stroke="gray" points="522,-182 516,-182 "/>
<text text-anchor="start" x="442" y="-166.233" font-family="Times,serif" font-size="14.00">type:</text>
<text text-anchor="start" x="473" y="-166.233" font-family="Times,serif" font-size="14.00">Person</text>
</g>
<!-- ann20&#45;&gt;Yolanda -->
<g id="edge14" class="edge"><title>ann20&#45;&gt;Yolanda</title>
<path fill="none" stroke="gray" stroke-dasharray="5,2" d="M480.028,-188.169C481.833,-199 484.119,-212.712 485.931,-223.587"/>
</g>
<!-- ann21 -->
<g id="node23" class="node"><title>ann21</title>
<polygon fill="none" stroke="gray" points="624,-188 540,-188 540,-152 630,-152 630,-182 624,-188"/>
<polyline fill="none" stroke="gray" points="624,-188 624,-182 "/>
<polyline fill="none" stroke="gray" points="630,-182 624,-182 "/>
<text text-anchor="start" x="550" y="-166.233" font-family="Times,serif" font-size="14.00">type:</text>
<text text-anchor="start" x="581" y="-166.233" font-family="Times,serif" font-size="14.00">Person</text>
</g>
<!-- ann21&#45;&gt;Ryan -->
<g id="edge16" class="edge"><title>ann21&#45;&gt;Ryan</title>
<path fill="none" stroke="gray" stroke-dasharray="5,2" d="M587.776,-188.169C589.431,-199 591.526,-212.712 593.187,-223.587"/>
</g>
<!-- ann22 -->
<g id="node26" class="node"><title>ann22</title>
<polygon fill="none" stroke="gray" points="804,-188 720,-188 720,-152 810,-152 810,-182 804,-188"/>
<polyline fill="none" stroke="gray" points="804,-188 804,-182 "/>
<polyline fill="none" stroke="gray" points="810,-182 804,-182 "/>
<text text-anchor="start" x="730" y="-166.233" font-family="Times,serif" font-size="14.00">type:</text>
<text text-anchor="start" x="761" y="-166.233" font-family="Times,serif" font-size="14.00">Person</text>
</g>
<!-- ann22&#45;&gt;Paul -->
<g id="edge18" class="edge"><title>ann22&#45;&gt;Paul</title>
<path fill="none" stroke="gray" stroke-dasharray="5,2" d="M745.065,-188.169C731.992,-200.083 715.094,-215.484 702.724,-226.758"/>
</g>
<!-- ann23 -->
<g id="node29" class="node"><title>ann23</title>
<polygon fill="none" stroke="gray" points="912,-188 828,-188 828,-152 918,-152 918,-182 912,-188"/>
<polyline fill="none" stroke="gray" points="912,-188 912,-182 "/>
<polyline fill="none" stroke="gray" points="918,-182 912,-182 "/>
<text text-anchor="start" x="838" y="-166.233" font-family="Times,serif" font-size="14.00">type:</text>
<text text-anchor="start" x="869" y="-166.233" font-family="Times,serif" font-size="14.00">Person</text>
</g>
<!-- ann23&#45;&gt;Graham -->
<g id="edge20" class="edge"><title>ann23&#45;&gt;Graham</title>
<path fill="none" stroke="gray" stroke-dasharray="5,2" d="M862.149,-188.169C855.681,-199 847.491,-212.712 840.997,-223.587"/>
</g>
<!-- ann24 -->
<g id="node32" class="node"><title>ann24</title>
<polygon fill="none" stroke="gray" points="1020,-188 936,-188 936,-152 1026,-152 1026,-182 1020,-188"/>
<polyline fill="none" stroke="gray" points="1020,-188 1020,-182 "/>
<polyline fill="none" stroke="gray" points="1026,-182 1020,-182 "/>
<text text-anchor="start" x="946" y="-166.233" font-family="Times,serif" font-size="14.00">type:</text>
<text text-anchor="start" x="977" y="-166.233" font-family="Times,serif" font-size="14.00">Person</text>
</g>
<!-- ann24&#45;&gt;Jim -->
<g id="edge22" class="edge"><title>ann24&#45;&gt;Jim</title>
<path fill="none" stroke="gray" stroke-dasharray="5,2" d="M974.439,-188.169C970.528,-199 965.576,-212.712 961.649,-223.587"/>
</g>
<!-- ann25 -->
<g id="node35" class="node"><title>ann25</title>
<polygon fill="none" stroke="gray" points="1128,-188 1044,-188 1044,-152 1134,-152 1134,-182 1128,-188"/>
<polyline fill="none" stroke="gray" points="1128,-188 1128,-182 "/>
<polyline fill="none" stroke="gray" points="1134,-182 1128,-182 "/>
<text text-anchor="start" x="1054" y="-166.233" font-family="Times,serif" font-size="14.00">type:</text>
<text text-anchor="start" x="1085" y="-166.233" font-family="Times,serif" font-size="14.00">Person</text>
</g>
<!-- ann25&#45;&gt;Simon -->
<g id="edge24" class="edge"><title>ann25&#45;&gt;Simon</title>
<path fill="none" stroke="gray" stroke-dasharray="5,2" d="M1083.95,-188.169C1080.94,-199 1077.14,-212.712 1074.11,-223.587"/>
</g>
<!-- ann26 -->
<g id="node38" class="node"><title>ann26</title>
<polygon fill="none" stroke="gray" points="1236,-188 1152,-188 1152,-152 1242,-152 1242,-182 1236,-188"/>
<polyline fill="none" stroke="gray" points="1236,-188 1236,-182 "/>
<polyline fill="none" stroke="gray" points="1242,-182 1236,-182 "/>
<text text-anchor="start" x="1162" y="-166.233" font-family="Times,serif" font-size="14.00">type:</text>
<text text-anchor="start" x="1193" y="-166.233" font-family="Times,serif" font-size="14.00">Person</text>
</g>
<!-- ann26&#45;&gt;James -->
<g id="edge26" class="edge"><title>ann26&#45;&gt;James</title>
<path fill="none" stroke="gray" stroke-dasharray="5,2" d="M1193.72,-188.169C1191.76,-199 1189.29,-212.712 1187.32,-223.587"/>
</g>
<!-- ann27 -->
<g id="node41" class="node"><title>ann27</title>
<polygon fill="none" stroke="gray" points="1344,-188 1260,-188 1260,-152 1350,-152 1350,-182 1344,-188"/>
<polyline fill="none" stroke="gray" points="1344,-188 1344,-182 "/>
<polyline fill="none" stroke="gray" points="1350,-182 1344,-182 "/>
<text text-anchor="start" x="1270" y="-166.233" font-family="Times,serif" font-size="14.00">type:</text>
<text text-anchor="start" x="1301" y="-166.233" font-family="Times,serif" font-size="14.00">Person</text>
</g>
<!-- ann27&#45;&gt;Satya -->
<g id="edge28" class="edge"><title>ann27&#45;&gt;Satya</title>
<path fill="none" stroke="gray" stroke-dasharray="5,2" d="M1301.97,-188.169C1300.17,-199 1297.88,-212.712 1296.07,-223.587"/>
</g>
</g>
</svg>
