<?xml version="1.0" encoding="utf-8" ?>
<!DOCTYPE svg PUBLIC "-//W3C//DTD SVG 1.1//EN" "http://www.w3.org/Graphics/SVG/1.1/DTD/svg11.dtd">
<svg height="372" version="1.1" width="566" xmlns="http://www.w3.org/2000/svg">
<rect fill="#ffffff" height="73" stroke="#ffffff" stroke-width="1" width="85" x="201" y="87"/>
<rect fill="#ffffff" height="0" stroke="#ffffff" stroke-width="1" width="85" x="201" y="87"/>
<rect fill="none" height="0" stroke="#000000" stroke-width="1" width="85" x="201" y="87"/>
<rect fill="#ffffff" height="23" stroke="#ffffff" stroke-width="1" width="85" x="201" y="87"/>
<text font-family="Lucida Grande" font-size="13" x="225" y="103">
Entity</text>
<rect fill="#ffffff" height="26" stroke="#ffffff" stroke-width="1" width="85" x="201" y="133"/>
<line fill="#000000" stroke="#000000" stroke-width="1" x1="201" x2="285" y1="133" y2="133"/>
<rect fill="#ffffff" height="23" stroke="#ffffff" stroke-width="1" width="85" x="201" y="110"/>
<line fill="#000000" stroke="#000000" stroke-width="1" x1="201" x2="285" y1="110" y2="110"/>
<rect fill="none" height="73" stroke="#000000" stroke-width="1" width="85" x="201" y="87"/>
<rect fill="#ffffff" height="73" stroke="#ffffff" stroke-width="1" width="85" x="449" y="79"/>
<rect fill="#ffffff" height="0" stroke="#ffffff" stroke-width="1" width="85" x="449" y="79"/>
<rect fill="none" height="0" stroke="#000000" stroke-width="1" width="85" x="449" y="79"/>
<rect fill="#ffffff" height="23" stroke="#ffffff" stroke-width="1" width="85" x="449" y="79"/>
<text font-family="Lucida Grande" font-size="13" x="467" y="95">
Activity</text>
<rect fill="#ffffff" height="24" stroke="#ffffff" stroke-width="1" width="85" x="449" y="127"/>
<line fill="#000000" stroke="#000000" stroke-width="1" x1="449" x2="533" y1="127" y2="127"/>
<rect fill="#ffffff" height="25" stroke="#ffffff" stroke-width="1" width="85" x="449" y="102"/>
<line fill="#000000" stroke="#000000" stroke-width="1" x1="449" x2="533" y1="102" y2="102"/>
<text font-family="Lucida Grande" font-size="13" x="452" y="119">
plan : Plan</text>
<rect fill="none" height="73" stroke="#000000" stroke-width="1" width="85" x="449" y="79"/>
<rect fill="#ffffff" height="73" stroke="#ffffff" stroke-width="1" width="141" x="201" y="239"/>
<rect fill="#ffffff" height="0" stroke="#ffffff" stroke-width="1" width="141" x="201" y="239"/>
<rect fill="none" height="0" stroke="#000000" stroke-width="1" width="141" x="201" y="239"/>
<rect fill="#ffffff" height="23" stroke="#ffffff" stroke-width="1" width="141" x="201" y="239"/>
<text font-family="Lucida Grande" font-size="13" x="253" y="255">
Agent</text>
<rect fill="#ffffff" height="26" stroke="#ffffff" stroke-width="1" width="141" x="201" y="285"/>
<line fill="#000000" stroke="#000000" stroke-width="1" x1="201" x2="341" y1="285" y2="285"/>
<rect fill="#ffffff" height="23" stroke="#ffffff" stroke-width="1" width="141" x="201" y="262"/>
<line fill="#000000" stroke="#000000" stroke-width="1" x1="201" x2="341" y1="262" y2="262"/>
<rect fill="none" height="73" stroke="#000000" stroke-width="1" width="141" x="201" y="239"/>
<polyline fill="none" points="233,239 233,160" stroke="#000000" stroke-width="1"/>
<polygon fill="#ffffff" points="233,160 240,172 226,172" stroke="#ffffff" stroke-width="1"/>
<polygon fill="none" points="233,160 240,172 226,172" stroke="#000000" stroke-width="1"/>
<polyline fill="none" points="465,152 465,247 342,247" stroke="#000000" stroke-width="1"/>
<line fill="#000000" stroke="#000000" stroke-width="1" x1="354" x2="342" y1="240" y2="247"/>
<line fill="#000000" stroke="#000000" stroke-width="1" x1="354" x2="342" y1="254" y2="247"/>
<text font-family="Lucida Grande" font-size="13" x="374" y="239">
wasStartedBy</text>
<polyline fill="none" points="497,152 497,279 342,279" stroke="#000000" stroke-width="1"/>
<line fill="#000000" stroke="#000000" stroke-width="1" x1="354" x2="342" y1="272" y2="279"/>
<line fill="#000000" stroke="#000000" stroke-width="1" x1="354" x2="342" y1="286" y2="279"/>
<text font-family="Lucida Grande" font-size="13" x="406" y="278">
wasEndedBy</text>
<text font-family="Lucida Grande" font-size="13" x="355" y="274">
1</text>
<polyline fill="none" points="521,152 521,303 342,303" stroke="#000000" stroke-width="1"/>
<line fill="#000000" stroke="#000000" stroke-width="1" x1="354" x2="342" y1="296" y2="303"/>
<line fill="#000000" stroke="#000000" stroke-width="1" x1="354" x2="342" y1="310" y2="303"/>
<text font-family="Lucida Grande" font-size="13" x="421" y="325">
wasAssociatedWith</text>
<polyline fill="none" points="201,271 121,271 121,343 209,343 209,312" stroke="#000000" stroke-width="1"/>
<line fill="#000000" stroke="#000000" stroke-width="1" x1="216" x2="209" y1="324" y2="312"/>
<line fill="#000000" stroke="#000000" stroke-width="1" x1="202" x2="209" y1="324" y2="312"/>
<text font-family="Lucida Grande" font-size="13" x="14" y="321">
actedOnBehalfOf</text>
<polyline fill="none" points="233,87 233,31 145,31 145,127 201,127" stroke="#000000" stroke-width="1"/>
<line fill="#000000" stroke="#000000" stroke-width="1" x1="189" x2="201" y1="134" y2="127"/>
<line fill="#000000" stroke="#000000" stroke-width="1" x1="189" x2="201" y1="120" y2="127"/>
<text font-family="Lucida Grande" font-size="13" x="73" y="30">
wasDerivedFrom</text>
<polyline fill="none" points="449,111 286,111" stroke="#000000" stroke-width="1"/>
<line fill="#000000" stroke="#000000" stroke-width="1" x1="298" x2="286" y1="104" y2="111"/>
<line fill="#000000" stroke="#000000" stroke-width="1" x1="298" x2="286" y1="118" y2="111"/>
<text font-family="Lucida Grande" font-size="13" x="328" y="107">
used</text>
<polyline fill="none" points="286,143 449,143" stroke="#000000" stroke-width="1"/>
<line fill="#000000" stroke="#000000" stroke-width="1" x1="437" x2="449" y1="150" y2="143"/>
<line fill="#000000" stroke="#000000" stroke-width="1" x1="437" x2="449" y1="136" y2="143"/>
<text font-family="Lucida Grande" font-size="13" x="317" y="165">
wasGeneratedBy</text>
<text font-family="Lucida Grande" font-size="13" x="428" y="138">
1</text>
</svg>
