<?xml version="1.0" encoding="utf-8" ?>
<!DOCTYPE svg PUBLIC "-//W3C//DTD SVG 1.1//EN" "http://www.w3.org/Graphics/SVG/1.1/DTD/svg11.dtd">
<svg height="367" version="1.1" width="573" xmlns="http://www.w3.org/2000/svg" xmlns:xlink="http://www.w3.org/1999/xlink">
<rect fill="#ffffff" height="73" stroke="#ffffff" stroke-width="1" width="85" x="206" y="88"/>
<rect fill="none" height="73" stroke="#000000" stroke-width="1" width="85" x="206" y="88"/>
<text font-family="Dialog" font-size="13" x="230" y="102">
Entity</text>
<rect fill="#000000" height="1" stroke="#000000" stroke-width="1" width="85" x="206" y="111"/>
<rect fill="#000000" height="1" stroke="#000000" stroke-width="1" width="85" x="206" y="135"/>
<rect fill="#ffffff" height="73" stroke="#ffffff" stroke-width="1" width="85" x="454" y="80"/>
<rect fill="none" height="73" stroke="#000000" stroke-width="1" width="85" x="454" y="80"/>
<text font-family="Dialog" font-size="13" x="472" y="94">
Activity</text>
<rect fill="#000000" height="1" stroke="#000000" stroke-width="1" width="85" x="454" y="103"/>
<rect fill="#000000" height="1" stroke="#000000" stroke-width="1" width="85" x="454" y="127"/>
<rect fill="#ffffff" height="73" stroke="#ffffff" stroke-width="1" width="141" x="206" y="240"/>
<rect fill="none" height="73" stroke="#000000" stroke-width="1" width="141" x="206" y="240"/>
<text font-family="Dialog" font-size="13" x="257" y="254">
Agent</text>
<rect fill="#000000" height="1" stroke="#000000" stroke-width="1" width="141" x="206" y="263"/>
<rect fill="#000000" height="1" stroke="#000000" stroke-width="1" width="141" x="206" y="287"/>
<polyline fill="none" points="238,240 238,160" stroke="#000000" stroke-width="1"/>
<polygon fill="#ffffff" points="238,160 245,172 231,172" stroke="#ffffff" stroke-width="1"/>
<polygon fill="none" points="238,160 245,172 231,172" stroke="#000000" stroke-width="1"/>
<polyline fill="none" points="470,152 470,248 346,248" stroke="#000000" stroke-width="1"/>
<line fill="#000000" stroke="#000000" stroke-width="1" x1="358" x2="346" y1="241" y2="248"/>
<line fill="#000000" stroke="#000000" stroke-width="1" x1="358" x2="346" y1="255" y2="248"/>
<text font-family="Dialog" font-size="13" x="378" y="237">
wasStartedBy</text>
<text font-family="Dialog" font-size="13" x="483" y="180">
</text>
<text font-family="Dialog" font-size="13" x="357" y="244">
</text>
<polyline fill="none" points="502,152 502,280 346,280" stroke="#000000" stroke-width="1"/>
<line fill="#000000" stroke="#000000" stroke-width="1" x1="358" x2="346" y1="273" y2="280"/>
<line fill="#000000" stroke="#000000" stroke-width="1" x1="358" x2="346" y1="287" y2="280"/>
<text font-family="Dialog" font-size="13" x="408" y="276">
wasEndedBy</text>
<text font-family="Dialog" font-size="13" x="515" y="180">
</text>
<text font-family="Dialog" font-size="13" x="357" y="276">
</text>
<polyline fill="none" points="526,152 526,304 346,304" stroke="#000000" stroke-width="1"/>
<line fill="#000000" stroke="#000000" stroke-width="1" x1="358" x2="346" y1="297" y2="304"/>
<line fill="#000000" stroke="#000000" stroke-width="1" x1="358" x2="346" y1="311" y2="304"/>
<a xlink:href="http://dvcs.w3.org/hg/prov/raw-file/default/model/prov-dm.html#term-ActivityAssociation" target="_parent">
<text font-family="Dialog" font-size="13" x="424" y="324">
wasAssociatedWith</text></a>
<text font-family="Dialog" font-size="13" x="539" y="180">
</text>
<text font-family="Dialog" font-size="13" x="357" y="300">
</text>
<polyline fill="none" points="206,272 126,272 126,344 214,344 214,312" stroke="#000000" stroke-width="1"/>
<line fill="#000000" stroke="#000000" stroke-width="1" x1="221" x2="214" y1="324" y2="312"/>
<line fill="#000000" stroke="#000000" stroke-width="1" x1="207" x2="214" y1="324" y2="312"/>
<text font-family="Dialog" font-size="13" x="15" y="323">
actedOnBehalfOf</text>
<text font-family="Dialog" font-size="13" x="187" y="268">
</text>
<text font-family="Dialog" font-size="13" x="193" y="340">
</text>
<polyline fill="none" points="238,88 238,32 150,32 150,128 206,128" stroke="#000000" stroke-width="1"/>
<line fill="#000000" stroke="#000000" stroke-width="1" x1="194" x2="206" y1="135" y2="128"/>
<line fill="#000000" stroke="#000000" stroke-width="1" x1="194" x2="206" y1="121" y2="128"/>
<a xlink:href="http://dvcs.w3.org/hg/prov/raw-file/default/model/prov-dm.html#term-Derivation" target="_parent">
<text font-family="Dialog" font-size="13" x="74" y="28">
wasDerivedFrom</text></a>
<text font-family="Dialog" font-size="13" x="217" y="72">
</text>
<text font-family="Dialog" font-size="13" x="187" y="124">
</text>
<polyline fill="none" points="454,112 290,112" stroke="#000000" stroke-width="1"/>
<line fill="#000000" stroke="#000000" stroke-width="1" x1="302" x2="290" y1="105" y2="112"/>
<line fill="#000000" stroke="#000000" stroke-width="1" x1="302" x2="290" y1="119" y2="112"/>
<a xlink:href="http://dvcs.w3.org/hg/prov/raw-file/default/model/prov-dm.html#term-Usage" target="_parent">
 <text font-family="Dialog" font-size="13" x="333" y="106">
used</text></a>
<text font-family="Dialog" font-size="13" x="435" y="108">
</text>
<text font-family="Dialog" font-size="13" x="301" y="108">
</text>
<polyline fill="none" points="290,144 454,144" stroke="#000000" stroke-width="1"/>
<line fill="#000000" stroke="#000000" stroke-width="1" x1="442" x2="454" y1="151" y2="144"/>
<line fill="#000000" stroke="#000000" stroke-width="1" x1="442" x2="454" y1="137" y2="144"/>
<a xlink:href="http://dvcs.w3.org/hg/prov/raw-file/default/model/prov-dm.html#term-Generation" target="_parent">
<text font-family="Dialog" font-size="13" x="317" y="160">
wasGeneratedBy</text></a>
<text font-family="Dialog" font-size="13" x="301" y="140">
</text>
<text font-family="Dialog" font-size="13" x="435" y="140">
</text>
</svg>
